<?xml version="1.0" encoding="UTF-8"?>
<svg version="1.1" xmlns="http://www.w3.org/2000/svg" width="1080" height="1080">
<path d="M0 0 C1.54327972 0.00090637 1.54327972 0.00090637 3.11773682 0.00183105 C80.36621247 0.12432675 157.93982058 14.69684005 228.3125 47.1875 C229.3240918 47.65414062 230.33568359 48.12078125 231.37792969 48.6015625 C276.54667704 69.58027906 317.52942911 96.61292128 354.3125 130.1875 C355.22257813 131.00476563 356.13265625 131.82203125 357.0703125 132.6640625 C367.40883234 142.01008444 377.71323681 151.6494019 386.71484375 162.30859375 C388.67251765 164.61089485 390.7118366 166.83121114 392.75 169.0625 C397.1494687 173.95571142 401.2938303 178.97762853 405.3125 184.1875 C405.82522461 184.84943359 406.33794922 185.51136719 406.86621094 186.19335938 C422.56402746 206.53544757 436.6194001 227.85058325 449.3125 250.1875 C449.71919922 250.90164063 450.12589844 251.61578125 450.54492188 252.3515625 C456.3125 262.5472812 456.3125 262.5472812 456.3125 266.1875 C455.69558792 266.15818893 455.07867584 266.12887787 454.44306946 266.09867859 C437.79047089 265.32558269 421.16988687 264.98406278 404.5 265 C403.32005463 265.00060425 402.14010925 265.0012085 400.92440796 265.00183105 C383.64270841 265.02579546 366.49716427 265.18537645 349.3125 267.1875 C347.66121094 267.3728833 347.66121094 267.3728833 345.9765625 267.56201172 C300.05556583 272.93117587 259.07611147 290.48322937 225.3125 322.1875 C224.78640137 322.67959961 224.26030273 323.17169922 223.71826172 323.67871094 C200.15093692 345.90535916 183.24020026 374.09530558 169.31005859 403.11816406 C168.64430712 404.49919919 167.97011025 405.87619439 167.28759766 407.24902344 C152.57724585 436.94353538 142.04357881 471.28212327 138.3125 504.1875 C138.17110596 505.39273315 138.17110596 505.39273315 138.02685547 506.62231445 C137.14469069 515.02655156 137.0691916 523.43383117 137.0625 531.875 C137.06182526 532.64450989 137.06115051 533.41401978 137.06045532 534.20684814 C137.12355447 579.77386676 149.686262 621.46929234 182.3125 654.1875 C212.66165239 684.12513846 255.76308069 695.49719448 297.38012695 695.3684082 C337.61544319 694.77716999 381.73782681 685.00629862 414.3125 660.1875 C412.00396448 652.69460825 408.94681247 645.72046623 405.625 638.625 C405.09551758 637.48562988 404.56603516 636.34625977 404.02050781 635.17236328 C399.93990382 626.43086321 395.71974124 617.76865795 391.3125 609.1875 C386.60480109 610.75972769 383.041274 613.38154743 379.0625 616.25 C353.71127457 633.99819809 324.55366035 643.68141556 293.3125 639.1875 C267.9818217 634.69072588 245.89604052 625.53925364 230.41552734 604.00341797 C222.71669513 592.79743707 218.04784539 580.62665304 214.5 567.5625 C214.30494873 566.84803711 214.10989746 566.13357422 213.90893555 565.39746094 C210.66028386 552.56335221 209.90139955 539.60669055 209.9375 526.4375 C209.93831573 525.30397598 209.93831573 525.30397598 209.93914795 524.14755249 C210.12187607 468.37965949 231.43596161 411.43392273 269.359375 370.328125 C270.94152608 368.59408742 272.42196881 366.84050618 273.875 365 C277.05528397 361.33044157 280.58684978 358.29002211 284.3125 355.1875 C285.0653125 354.54683594 285.818125 353.90617187 286.59375 353.24609375 C323.17103389 322.90357416 372.30195216 319.04132565 417.984375 319.01953125 C419.60719836 319.01630588 421.23002144 319.01294093 422.85284424 319.00944519 C426.21407752 319.00352788 429.57528533 319.00159819 432.93652344 319.00219727 C437.23689691 319.00229998 441.53710931 318.98850383 445.83744431 318.97142506 C449.17117059 318.96031552 452.50485726 318.95827752 455.83860016 318.95880699 C457.42539285 318.95763087 459.0121867 318.95322979 460.59896088 318.94547462 C462.8066517 318.93566975 465.013983 318.93855153 467.22167969 318.94458008 C468.4739032 318.94315506 469.72612671 318.94173004 471.01629639 318.94026184 C474.26082912 319.18362432 476.45147428 319.66306253 479.3125 321.1875 C481.94514901 325.53428166 483.55436178 330.42700266 485.3125 335.1875 C485.67794922 336.1465625 485.67794922 336.1465625 486.05078125 337.125 C511.15701719 403.71694132 512.6873208 485.63329162 468.7421875 667.03613281 C447.83568086 713.1189859 420.7095835 755.22733768 386.61645508 792.64819336 C385.16522724 794.24766573 383.72127317 795.85379759 382.2878418 797.46923828 C376.64704605 803.81884238 370.7678186 809.88332688 364.75 815.875 C363.85603516 816.77283203 362.96207031 817.67066406 362.04101562 818.59570312 C356.95973412 823.66955042 351.77647297 828.53027826 346.3125 833.1875 C345.22931332 834.13670393 344.1472322 835.08717136 343.06640625 836.0390625 C334.76874775 843.27612774 326.17836897 850.05321531 317.36474609 856.64990234 C315.47278669 858.06740892 313.58940747 859.49559305 311.70703125 860.92578125 C295.44943996 873.17155352 278.1765541 884.01794222 260.44140625 893.98046875 C258.46727947 895.0997443 256.51277913 896.24606263 254.5625 897.40625 C193.51512886 933.36811018 120.58916218 952.65122746 50.3125 958.1875 C49.14452881 958.28248779 47.97655762 958.37747559 46.77319336 958.4753418 C34.60577796 959.35737945 22.44494249 959.38733012 10.25 959.375 C8.59218506 959.37409363 8.59218506 959.37409363 6.90087891 959.37316895 C-85.25014214 959.23677213 -177.15721547 939.28216872 -318.6875 853.1875 C-320.15509766 852.02347656 -320.15509766 852.02347656 -321.65234375 850.8359375 C-331.76759233 842.66650032 -341.88040527 834.29180082 -350.93359375 824.9453125 C-352.77971326 823.09508136 -354.705435 821.39077744 -356.6875 819.6875 C-362.82146096 814.39380767 -368.37326768 808.65013353 -373.6484375 802.5078125 C-375.72292101 800.14719333 -377.85203354 797.84823833 -379.99707031 795.55200195 C-385.8339414 789.2991218 -391.3516981 782.87742978 -396.6875 776.1875 C-397.5967663 775.06958806 -398.5069716 773.9524394 -399.41796875 772.8359375 C-411.30764363 758.20586185 -422.49580281 743.05022839 -432.6875 727.1875 C-433.41864014 726.04982178 -433.41864014 726.04982178 -434.16455078 724.88916016 C-451.6875 697.53666562 -451.6875 697.53666562 -451.6875 694.1875 C-443.11150965 694.09004556 -434.56180237 694.1052627 -425.99447632 694.53923035 C-410.53841619 695.31478846 -395.08863306 695.37506614 -379.61767578 695.37280273 C-376.59157305 695.37272168 -373.56562241 695.37965233 -370.53955078 695.39331055 C-345.17510628 695.50577263 -319.77049097 695.08654006 -294.625 691.375 C-292.83993042 691.11734863 -292.83993042 691.11734863 -291.01879883 690.85449219 C-265.56771032 687.02509754 -240.82215962 679.51197979 -217.6875 668.1875 C-216.91067871 667.80867676 -216.13385742 667.42985352 -215.33349609 667.03955078 C-183.73410514 651.44745187 -155.26578756 629.04662362 -143.0847168 594.92358398 C-133.96042848 567.49117162 -130.49060696 535.84447199 -143.6875 509.1875 C-157.63055813 481.99243911 -186.43543315 468.81356751 -214.10473633 459.63745117 C-231.66916015 454.09439743 -249.74042827 450.26539488 -267.6875 446.1875 C-284.60043907 442.33759061 -301.46293764 438.3246812 -318.2677002 434.02630615 C-320.25669766 433.51918875 -322.24681327 433.01643143 -324.23815918 432.51861572 C-367.79662622 421.6025284 -367.79662622 421.6025284 -379.46875 405.33984375 C-383.06552356 398.98784941 -384.21575933 394.18517715 -384.125 386.9375 C-384.11815186 386.09848145 -384.11130371 385.25946289 -384.10424805 384.39501953 C-383.9315353 377.69738748 -382.73788361 372.19795982 -379.6875 366.1875 C-379.336875 365.42566406 -378.98625 364.66382813 -378.625 363.87890625 C-369.23064038 345.05756771 -349.35307447 332.71144896 -330.00537109 326.13305664 C-323.32353367 323.97093057 -316.61701681 322.34882857 -309.6875 321.1875 C-307.96080078 320.88005859 -307.96080078 320.88005859 -306.19921875 320.56640625 C-274.39799002 315.85631619 -234.70017891 316.38034485 -207.90625 336.25 C-196.28730253 346.04911232 -189.81565009 359.29044937 -187.6875 374.1875 C-187.6875 378.8075 -187.6875 383.4275 -187.6875 388.1875 C-165.2475 388.1875 -142.8075 388.1875 -119.6875 388.1875 C-121.06234327 370.15131748 -121.06234327 370.15131748 -123.875 352.4375 C-124.08713135 351.40802246 -124.2992627 350.37854492 -124.51782227 349.31787109 C-130.23229334 323.01949653 -142.70838711 299.00257111 -165.56054688 283.84082031 C-206.1308522 258.18079894 -270.5901976 256.33395426 -316.6875 265.1875 C-317.72825684 265.38617676 -318.76901367 265.58485352 -319.84130859 265.78955078 C-353.45738808 272.43904939 -384.70024228 285.23619824 -409.6875 309.1875 C-410.49574219 309.93257813 -411.30398438 310.67765625 -412.13671875 311.4453125 C-434.53151355 332.75025073 -446.94245313 361.83764017 -450.6875 392.1875 C-450.81769531 393.23550781 -450.94789063 394.28351563 -451.08203125 395.36328125 C-453.11880698 414.56328717 -451.54805092 435.19630713 -439.484375 451.0234375 C-433.23042807 458.55536489 -425.88416483 463.908055 -417.6875 469.1875 C-416.67300781 469.8475 -415.65851563 470.5075 -414.61328125 471.1875 C-407.32429178 475.63441117 -399.71375543 479.02641029 -391.8125 482.25 C-390.87631836 482.63728271 -389.94013672 483.02456543 -388.97558594 483.42358398 C-370.85700038 490.59142521 -351.74991929 495.06322372 -332.79495239 499.38659668 C-327.21975695 500.6601631 -321.65074417 501.96014236 -316.08203125 503.26171875 C-314.99653488 503.51535187 -313.91103851 503.76898499 -312.79264832 504.03030396 C-300.81289245 506.8424403 -288.92281427 509.9332899 -277.0703125 513.24316406 C-273.44596247 514.2549269 -269.8167265 515.24807067 -266.1875 516.2421875 C-225.31891579 527.54615091 -225.31891579 527.54615091 -214.6875 541.1875 C-208.75115732 551.83322091 -208.11975581 564.06760755 -210.40625 575.91015625 C-211.34610878 579.08975913 -212.43068081 582.12036178 -213.6875 585.1875 C-214.01492188 586.04472656 -214.34234375 586.90195312 -214.6796875 587.78515625 C-223.14435883 607.27861467 -244.91489813 619.65590366 -263.75390625 627.28515625 C-276.45494429 632.21472017 -289.3055661 635.68717183 -302.6875 638.1875 C-303.49880371 638.34057617 -304.31010742 638.49365234 -305.14599609 638.65136719 C-316.70166118 640.74640527 -328.35549435 641.6372158 -340.0625 642.375 C-341.9820752 642.50104614 -341.9820752 642.50104614 -343.94042969 642.62963867 C-373.07897233 644.35921881 -402.45462007 642.96959686 -431.60955811 642.26037598 C-436.71294938 642.13703929 -441.81643978 642.01794642 -446.91992188 641.8984375 C-456.84254609 641.66548186 -466.76505666 641.42802885 -476.6875 641.1875 C-487.81073932 612.84040153 -487.81073932 612.84040153 -490.9375 601.375 C-491.25557617 600.23015137 -491.57365234 599.08530273 -491.90136719 597.90576172 C-515.4209677 511.19935079 -511.53365334 417.10974794 -482.6875 332.1875 C-482.35250488 331.19621094 -482.01750977 330.20492188 -481.67236328 329.18359375 C-476.77557026 314.85151661 -470.92538529 300.982152 -464.6875 287.1875 C-464.32043945 286.36685059 -463.95337891 285.54620117 -463.57519531 284.70068359 C-451.46104109 257.7292341 -435.93415057 231.99914875 -418.26953125 208.31201172 C-416.70985546 206.21752117 -415.16613082 204.11206624 -413.625 202.00390625 C-405.03118998 190.31381751 -395.68545097 179.38684738 -385.91796875 168.6640625 C-384.68221148 167.29196074 -383.45329582 165.91324455 -382.25415039 164.5090332 C-377.48572666 158.94504642 -372.38979459 153.73659342 -367.19946289 148.5690918 C-365.75225615 147.12724779 -364.31047974 145.68012884 -362.86914062 144.23242188 C-357.64465368 139.00384888 -352.31033377 133.98435524 -346.6875 129.1875 C-345.53061919 128.16624793 -344.37563573 127.14284208 -343.22265625 126.1171875 C-334.0420042 118.0149895 -324.52342524 110.47675932 -314.6875 103.1875 C-313.95096191 102.64061523 -313.21442383 102.09373047 -312.45556641 101.53027344 C-286.69166905 82.4745005 -259.31186157 66.55882203 -230.6875 52.1875 C-229.40262695 51.5380542 -229.40262695 51.5380542 -228.09179688 50.87548828 C-158.16032109 15.75042018 -77.84866 -0.08506845 0 0 Z M31.05859375 324.671875 C29.93309371 325.96510614 28.81239893 327.26255541 27.69921875 328.56640625 C25.67222555 330.93598986 23.64609331 333.11319484 21.3125 335.1875 C20.3225 335.1875 19.3325 335.1875 18.3125 335.1875 C18.43778076 334.59251709 18.56306152 333.99753418 18.69213867 333.38452148 C21.46100576 320.1353983 23.953486 306.85872597 26.125 293.5 C26.23572845 292.82846893 26.34645691 292.15693787 26.46054077 291.46505737 C26.77736547 289.53619314 27.08608792 287.60600348 27.39453125 285.67578125 C27.66100464 284.01349487 27.66100464 284.01349487 27.93286133 282.31762695 C28.30618917 279.23953293 28.38098875 276.28464861 28.3125 273.1875 C13.20034538 273.11645363 -1.89235359 273.33005033 -17 273.6875 C-19.12043775 273.73589477 -21.24088046 273.78407282 -23.36132812 273.83203125 C-28.47011238 273.94803631 -33.57882162 274.06692608 -38.6875 274.1875 C-42.56495162 292.17341066 -45.98720518 310.23276246 -49.26205826 328.3363533 C-49.69689316 330.73941004 -50.13272019 333.14228533 -50.56869507 335.5451355 C-68.61285805 435.05673973 -85.98871069 534.72250348 -102.125 634.5625 C-102.29647427 635.62308372 -102.29647427 635.62308372 -102.47141266 636.70509338 C-103.21223464 641.28982749 -103.94914388 645.87517747 -104.68359375 650.4609375 C-104.85981766 651.55810089 -105.03604156 652.65526428 -105.21760559 653.78567505 C-106.1132945 659.40931314 -106.97815756 665.03737378 -107.81274414 670.67041016 C-107.98028702 671.79694 -108.1478299 672.92346985 -108.32044983 674.08413696 C-108.78538023 677.4942327 -108.78538023 677.4942327 -108.6875 682.1875 C-85.9175 682.1875 -63.1475 682.1875 -39.6875 682.1875 C-38.0231442 675.58280565 -38.0231442 675.58280565 -36.75500488 668.95724487 C-36.59842407 667.9977594 -36.44184326 667.03827393 -36.28051758 666.04971313 C-36.11640381 665.02252167 -35.95229004 663.9953302 -35.78320312 662.93701172 C-35.60390259 661.83264771 -35.42460205 660.72828369 -35.23986816 659.5904541 C-34.85104062 657.19329992 -34.46373218 654.79589895 -34.07777405 652.3982811 C-33.4567767 648.54285188 -32.8310078 644.68822346 -32.20397949 640.83377075 C-30.53057899 630.54392854 -28.86374753 620.25302488 -27.20232928 609.96124125 C-22.48962336 580.76986348 -17.70488561 551.60039514 -12.3203125 522.5234375 C-12.11862961 521.43054287 -11.91694672 520.33764824 -11.70915222 519.21163559 C-6.32923538 490.15439342 -0.30313645 461.17828879 9.3125 433.1875 C9.62509766 432.2692041 9.93769531 431.3509082 10.25976562 430.40478516 C16.586441 412.10261711 24.69459966 394.04807922 37.3125 379.1875 C38.04082031 378.32125 38.76914062 377.455 39.51953125 376.5625 C48.54331205 366.19542434 58.52622918 358.1524003 70.3125 351.1875 C71.1802002 350.67123047 71.1802002 350.67123047 72.06542969 350.14453125 C100.3548434 333.56162956 129.98558925 327.60779427 162.3125 332.1875 C165.02084919 318.86719712 167.59606566 305.52734044 170.03222656 292.15454102 C170.57177298 289.19920781 171.11791067 286.2451344 171.6640625 283.29101562 C172.01081745 281.39330236 172.3571867 279.49551856 172.703125 277.59765625 C172.94678802 276.28680809 172.94678802 276.28680809 173.19537354 274.94947815 C173.9114661 270.98141347 174.52569997 267.23985181 174.3125 263.1875 C121.34023351 248.31809186 64.58678517 287.71532432 31.05859375 324.671875 Z " fill="#FFFFFF" transform="translate(543.6875,30.8125)"/>
</svg>
